<svg id="visual" viewBox="0 0 960 200" width="960" height="200" xmlns="http://www.w3.org/2000/svg" xmlns:xlink="http://www.w3.org/1999/xlink" version="1.1"><rect x="0" y="0" width="960" height="200" fill="#333"></rect><path d="M0 120L40 115.2C80 110.3 160 100.7 240 104C320 107.3 400 123.7 480 130.2C560 136.7 640 133.3 720 123.5C800 113.7 880 97.3 920 89.2L960 81L960 201L920 201C880 201 800 201 720 201C640 201 560 201 480 201C400 201 320 201 240 201C160 201 80 201 40 201L0 201Z" fill="#2a2a2a" stroke-linecap="round" stroke-linejoin="miter"></path></svg>