<svg id="visual" viewBox="0 0 960 200" width="960" height="200" xmlns="http://www.w3.org/2000/svg" xmlns:xlink="http://www.w3.org/1999/xlink" version="1.1"><rect x="0" y="0" width="960" height="200" fill="#333"></rect><path d="M0 59L40 72.8C80 86.7 160 114.3 240 130.5C320 146.7 400 151.3 480 138.2C560 125 640 94 720 77.5C800 61 880 59 920 58L960 57L960 201L920 201C880 201 800 201 720 201C640 201 560 201 480 201C400 201 320 201 240 201C160 201 80 201 40 201L0 201Z" fill="#2a2a2a" stroke-linecap="round" stroke-linejoin="miter"></path></svg>