<svg id="visual" viewBox="0 0 960 200" width="960" height="200" xmlns="http://www.w3.org/2000/svg" xmlns:xlink="http://www.w3.org/1999/xlink" version="1.1"><rect x="0" y="0" width="960" height="200" fill="#333"></rect><path d="M0 161L40 152.3C80 143.7 160 126.3 240 120.7C320 115 400 121 480 131.5C560 142 640 157 720 154C800 151 880 130 920 119.5L960 109L960 201L920 201C880 201 800 201 720 201C640 201 560 201 480 201C400 201 320 201 240 201C160 201 80 201 40 201L0 201Z" fill="#2a2a2a" stroke-linecap="round" stroke-linejoin="miter"></path></svg>